<?xml version="1.0" encoding="UTF-8" standalone="no"?>
<svg
   xmlns:dc="http://purl.org/dc/elements/1.1/"
   xmlns:cc="http://creativecommons.org/ns#"
   xmlns:rdf="http://www.w3.org/1999/02/22-rdf-syntax-ns#"
   xmlns:svg="http://www.w3.org/2000/svg"
   xmlns="http://www.w3.org/2000/svg"
   xmlns:sodipodi="http://sodipodi.sourceforge.net/DTD/sodipodi-0.dtd"
   xmlns:inkscape="http://www.inkscape.org/namespaces/inkscape"
   version="1.1"
   width="241.53281"
   height="241.53281"
   id="svg1025"
   viewBox="0 0 241.5328 241.53281"
   sodipodi:docname="fisher.svg"
   inkscape:version="0.92.3 (2405546, 2018-03-11)">
  <metadata
     id="metadata1031">
    <rdf:RDF>
      <cc:Work
         rdf:about="">
        <dc:format>image/svg+xml</dc:format>
        <dc:type
           rdf:resource="http://purl.org/dc/dcmitype/StillImage" />
        <dc:title></dc:title>
      </cc:Work>
    </rdf:RDF>
  </metadata>
  <defs
     id="defs1029" />
  <sodipodi:namedview
     pagecolor="#ffffff"
     bordercolor="#666666"
     borderopacity="1"
     objecttolerance="10"
     gridtolerance="10"
     guidetolerance="10"
     inkscape:pageopacity="0"
     inkscape:pageshadow="2"
     inkscape:window-width="1680"
     inkscape:window-height="1023"
     id="namedview1027"
     showgrid="false"
     fit-margin-left="4"
     fit-margin-top="4"
     fit-margin-right="4"
     fit-margin-bottom="4"
     inkscape:zoom="0.68452195"
     inkscape:cx="211.17598"
     inkscape:cy="-58.797454"
     inkscape:window-x="0"
     inkscape:window-y="27"
     inkscape:window-maximized="1"
     inkscape:current-layer="svg1025" />
  <path
     d="M 120.7664,4 A 116.7664,116.7664 0 0 1 237.5328,120.7664 116.7664,116.7664 0 1 1 120.7664,4 Z"
     style="fill:#1b1918;fill-rule:evenodd"
     id="path872"
     inkscape:connector-curvature="0" />
  <path
     d="M 120.7664,11.1752 A 109.1958,109.5913 0 0 1 229.9621,120.7664 109.1958,109.5913 0 1 1 120.7664,11.1752 Z"
     style="fill:#ffffff;fill-rule:evenodd"
     id="path874"
     inkscape:connector-curvature="0" />
  <path
     d="m 55.2595,127.4208 67.1769,-21.8788 41.9838,9.5679 -46.8669,33.937 C 94.0024,166.1006 40.8774,163.058 36.356,160.6327 31.8346,158.2073 34.5499,139.8812 55.2595,127.4208 Z"
     style="fill:#1b1918;fill-rule:evenodd"
     id="path876"
     inkscape:connector-curvature="0" />
  <path
     d="m 37.9079,161.9792 c 0,0 14.9534,14.2353 27.2116,14.4338 0,0 9.8942,-5.8886 28.5625,-4.7293 0,0 -0.4028,-8.2544 11.6152,-6.4531 0,0 12.2205,5.9293 26.7206,-3.3665 14.5,-9.2959 15.1588,-20.2273 21.8476,-26.5976 6.6888,-6.3702 8.9651,-5.7255 8.9651,-5.7255 l -0.5135,-6.9345 0.7205,-4.8072 c 0,0 -29.4301,19.9834 -37.9619,27.7162 -8.5319,7.7329 -21.5294,12.0473 -29.7166,14.1485 -9.971,2.5596 -39.5608,5.9775 -57.4511,2.3152 z"
     style="fill:#1b1918;fill-rule:evenodd"
     id="path878"
     inkscape:connector-curvature="0" />
  <path
     d="m 97.9315,153.0795 c -21.8866,9.9195 -62.3584,5.0544 -62.3584,5.0544 3.2634,-19.11 12.3594,-23.7479 18.7755,-29.1866 0,0 12.9668,-6.4573 43.5829,24.1322 z"
     style="fill:#ffffff;fill-rule:evenodd"
     id="path880"
     inkscape:connector-curvature="0" />
  <path
     d="m 64.539,127.6748 57.7006,-19.3515 35.9139,8.5819 -10.2881,7.2579 -23.7845,-6.7651 -41.7018,19.3499 c 0,0 -5.5561,-5.633 -17.8401,-9.0731 z"
     style="fill:#ffffff;fill-rule:evenodd"
     id="path882"
     inkscape:connector-curvature="0" />
  <path
     d="m 87.6198,123.1337 40.2953,14.0402 11.8132,-9.4289 -38.809,-10.6172 c 0,0 -13.7497,6.3388 -13.2995,6.0059 z"
     style="fill:#1b1918;fill-rule:evenodd"
     id="path884"
     inkscape:connector-curvature="0" />
  <path
     d="m 64.2814,179.3653 c 4.4345,-1.8469 16.3178,-6.5539 24.694,-6.1417 8.3762,0.4123 11.1493,3.5552 11.1493,3.5552 0,0 -5.9115,-10.5694 1.848,-10.5694 7.7595,0 13.2955,6.5182 23.2728,2.4535 9.9773,-4.0646 12.5694,-12.5783 28.0894,-14.0553 15.5201,-1.477 20.3233,2.2167 31.7787,-4.0647 11.4554,-6.2813 24.3879,-11.4554 26.2358,-12.1939 1.848,-0.7385 -20.693,20.3232 -27.3441,23.2796 -6.6512,2.9563 -14.0408,2.9574 -24.0181,5.1741 -9.9773,2.2166 -25.1286,8.8689 -31.41,9.6074 -6.2813,0.7385 -8.1293,-2.9563 -15.8887,2.5865 -7.7595,5.5428 -16.6284,9.9773 -21.8014,10.7158 -5.173,0.7385 -15.8888,0.3687 -21.4316,-0.7397 -5.5428,-1.1083 -11.0867,-3.6959 -14.7816,-4.0646 -3.6948,-0.3687 -7.7594,2.2178 -9.2376,-0.7385 -1.4781,-2.9563 -2.9552,-8.5003 -3.325,-10.3471 -0.3698,-1.8469 -2.9563,-7.0198 -2.9563,-7.0198 0,0 11.4543,8.1292 14.4106,9.2376 2.9563,1.1083 10.7158,3.6948 10.7158,3.325 z"
     style="fill:#1b1918;fill-rule:evenodd"
     id="path886"
     inkscape:connector-curvature="0" />
  <path
     d="m 163.3122,145.7387 c 0.3698,-5.9127 5.1741,-10.7147 12.5638,-10.346 7.3896,0.3687 12.1939,-0.3687 15.8887,-4.0635 3.6949,-3.6949 2.7228,-3.0882 7.7606,-7.7606 1.8458,-1.7117 -5.5249,2.353 -16.7524,6.1595 -9.4723,3.2111 -12.4397,0.4927 -21.6774,3.4479 -9.2376,2.9552 -9.9772,11.0856 -12.5637,16.2586 -2.5865,5.173 11.0845,1.848 19.9534,1.848 8.8689,0 17.7367,-3.325 23.2795,-8.1293 5.5428,-4.8043 10.3471,-8.1293 15.5201,-9.6075 5.173,-1.4781 15.8888,-7.3907 15.8888,-7.3907 -0.3844,-5.7763 -13.7291,3.0691 -18.5993,2.8334 -8.0924,-0.3933 -6.5283,4.1886 -10.2231,6.4053 -3.6948,2.2167 -14.4106,0.3687 -21.4316,4.4334 -7.0209,4.0646 -9.6074,5.9126 -9.6074,5.9115 z"
     style="fill:#1b1918;fill-rule:evenodd"
     id="path888"
     inkscape:connector-curvature="0" />
  <path
     d="m 10.1248,115.3633 c 0,0 13.3023,3.449 17.2441,1.4782 3.9417,-1.9709 8.8689,-1.9709 8.8689,-1.9709 l 6.8969,1.4781 h 5.9127 c 0,0 6.4053,-0.4927 8.8689,-1.4781 2.4636,-0.9855 6.4042,-1.4771 9.8532,-1.4771 3.4491,0 2.4636,0.4916 5.9127,0.9844 3.449,0.4927 7.3896,0.001 10.3459,-0.9844 2.9563,-0.9854 6.8981,0 9.3617,-0.4927 2.4636,-0.4927 -7.8824,4.4334 -15.2732,5.9115 -7.3908,1.4782 -21.1858,3.9418 -24.6348,6.4054 -3.449,2.4636 -11.8241,8.8678 -15.2731,12.8095 -3.4491,3.9418 -6.8981,14.7805 -6.8981,14.7805 l 1.4782,9.8543 c 0,0 4.9271,5.9115 5.4199,10.8387 0.4927,4.9272 2.9563,11.8253 2.9563,11.8253 0,0 3.9406,3.4479 9.8532,2.9563 0.7251,-0.0604 1.7452,0.9094 2.9642,0.9273 8.7393,0.1296 25.1197,4.9842 25.1197,4.9842 0,0 11.8252,2.9552 20.2003,-1.9709 8.3751,-4.9261 16.2575,-15.7659 22.6628,-12.8096 6.4053,2.9563 8.87,3.4491 16.7524,0.9855 7.8824,-2.4636 19.2138,-7.8846 23.1555,-9.3617 3.9418,-1.477 13.3023,-0.9843 19.7077,-3.9406 6.4053,-2.9563 11.8241,-4.9272 15.7658,-8.8689 3.9418,-3.9418 12.8107,-11.3314 14.7816,-14.2878 1.9709,-2.9563 9.3605,-9.8543 9.3605,-9.8543 0,0 13.3034,-14.2877 12.8107,-11.8241 -0.4927,2.4636 -9.3617,75.3814 -51.2405,93.1181 -41.8788,17.7368 -50.255,31.0391 -114.3039,5.9127 C 4.7061,196.1658 9.6321,114.8706 10.1248,115.3633 Z"
     style="fill:#1b1918;fill-rule:evenodd"
     id="path890"
     inkscape:connector-curvature="0" />
  <path
     d="m 168.7712,118.3196 c 8.3762,-1.4781 10.8387,-4.4345 15.2732,-1.4781 4.4344,2.9563 4.9283,3.449 10.8398,1.4781 5.9115,-1.9709 9.3605,-2.9563 14.2877,-2.4636 4.9272,0.4927 7.3896,2.4636 10.8387,2.4636 3.449,0 8.8689,2.4636 8.8689,2.4636 0,0 -8.8678,-1.4782 -14.2877,2.4636 -5.4199,3.9417 -15.767,3.9417 -15.767,3.9417 l 4.4345,-6.4053 c 0,0 -6.897,0 -11.8242,2.9563 -4.9272,2.9563 -9.8532,1.4782 -14.2877,2.9563 -4.4344,1.4782 -10.3471,1.4782 -10.3471,1.4782 0,0 1.9709,-9.3617 1.9709,-9.8544 z"
     style="fill:#1b1918;fill-rule:evenodd"
     id="path892"
     inkscape:connector-curvature="0" />
  <path
     d="m 133.2966,99.5986 c -0.9854,4.9271 -4.9272,10.3482 0,12.3179 4.9272,1.9698 10.8387,2.4625 10.8387,2.4625 l 9.3616,-3.4479 v -6.8981 c 0,0 -0.9865,-5.9126 -4.4344,-5.4199 -3.4479,0.4927 -15.7659,0.9855 -15.7659,0.9855 z"
     style="fill:#1b1918;fill-rule:evenodd"
     id="path894"
     inkscape:connector-curvature="0" />
  <path
     d="m 96.8388,110.0205 c 0,-3.2008 0,-11.602 1.6004,-14.0026 1.6004,-2.4006 2.1112,-4.0009 4.001,-5.2003 1.2611,-0.7993 3.4666,-6.1612 4.7848,-4.97 1.477,1.3346 0.6088,0.6986 0.8165,-0.2313 0.627,-2.7989 0.4011,-9.2023 4.001,-9.6024 3.6,-0.4001 3.6,-1.2003 6.4007,0 2.8007,1.2003 3.7515,1.7238 3.7515,4.1244 0,1.2974 -0.1969,4.7975 -0.9327,6.8207 -0.6251,1.7202 -2.8333,2.5984 -2.4831,2.5703 0.7666,-0.0617 4.9218,0.3066 4.4918,1.1658 -0.4301,0.8592 0.3738,2.5221 1.174,6.123 0.8002,3.6009 0.8002,3.6018 1.2003,6.8017 0.4001,3.1999 0.4001,1.9996 -0.4001,5.6005 -0.8002,3.6008 -2.0005,7.2017 -2.0005,7.2017 l -0.8002,2.4006 c 0,0 -6.0006,0.4001 -11.602,-1.2003 -5.6013,-1.6004 -13.2032,-6.8016 -14.0034,-7.6018 z"
     style="fill:#1b1918;fill-rule:evenodd"
     id="path896"
     inkscape:connector-curvature="0" />
  <path
     d="m 96.8388,107.9736 c -0.9854,2.4636 3.4479,14.2878 3.4479,14.2878 0,0 4.4345,4.9271 8.8689,4.4344 4.4345,-0.4927 6.897,-1.4781 10.8387,-0.4927 3.9418,0.9854 7.3908,1.9709 7.3908,1.9709 0,0 7.8835,-2.9563 7.8835,-5.9126 0,-2.9564 0,-6.8981 0,-6.8981 0,0 -2.9563,-2.4625 -6.8981,-2.4625 -3.9417,0 -5.421,-0.9854 -8.3762,-0.9854 -2.9552,0 -4.926,-2.4636 -7.8824,-2.4636 -2.9563,0 -14.7804,0 -15.2731,-1.4782 z"
     style="fill:#1b1918;fill-rule:evenodd"
     id="path898"
     inkscape:connector-curvature="0" />
  <path
     d="m 107.6775,84.941 c -2.4636,0 -2.8323,-5.0512 -2.8323,-5.0512 l 0.9843,-1.477 0.4938,-7.2679 c 0,0 3.8178,-4.5574 5.7886,-2.0938 1.9709,2.4636 0.6157,0.4939 3.0793,1.4793 2.4635,0.9854 4.1875,-0.9854 6.6511,2.9552 2.4636,3.9406 1.6011,5.049 1.6011,5.049 l -5.4188,2.9563 c 0,0 -10.8398,3.9428 -10.3471,3.4501 z"
     style="fill:#1b1918;fill-rule:evenodd"
     id="path900"
     inkscape:connector-curvature="0" />
  <path
     d="m 122.7026,90.4816 c 1.4782,1.4781 6.6523,7.6377 6.6523,7.6377 l 6.1595,3.573 9.3594,0.6134 c 0,0 -1.7228,5.2378 -2.8937,6.6534 -1.1709,1.4156 -6.4668,-0.001 -6.4668,-0.001 0,0 -1.7251,-0.247 -3.9418,-0.9855 -2.2166,-0.7385 -10.3459,-4.1875 -10.3459,-4.1875 0,0 0.9843,-12.0711 1.477,-13.3034 z"
     style="fill:#1b1918;fill-rule:evenodd"
     id="path902"
     inkscape:connector-curvature="0" />
  <path
     d="m 144.5029,103.5995 c 0.5541,-0.3698 2.4032,-1.4178 2.9574,-1.2323 0.5542,0.1854 -0.6167,1.2323 -1.1709,1.6636 -0.5542,0.4312 -1.7865,-0.4313 -1.7865,-0.4313 z"
     style="fill:#ffffff;fill-rule:evenodd"
     id="path904"
     inkscape:connector-curvature="0" />
  <path
     d="m 137.2953,123.1853 c 0.2458,-0.6156 28.01189,-57.71315 41.1403,-74.7669 2.8077,-2.5865 -3.7529,6.3472 -8.3818,14.5849 -8.2309,14.6508 -23.9264,41.1336 -29.5564,60.7977 0,0 -3.0792,-0.2458 -3.2021,-0.6157 z"
     style="fill:#1b1918;fill-rule:evenodd"
     id="path906"
     inkscape:connector-curvature="0"
     sodipodi:nodetypes="ccccc" />
  <path
     d="m 153.1456,92.3921 c 1.4408,0 4.6435,1.7619 3.8432,3.3625 -0.8003,1.6006 -1.6007,1.1213 -2.2412,1.9216 -0.6405,0.8003 -2.0828,1.1213 -2.0828,1.1213 0,0 -2.5621,-0.3225 -1.9216,-1.4423 0.6405,-1.1199 2.5621,-4.9631 2.4024,-4.9631 z"
     style="fill:#1b1918;fill-rule:evenodd"
     id="path908"
     inkscape:connector-curvature="0" />
  <path
     style="color:#000000;font-style:normal;font-variant:normal;font-weight:normal;font-stretch:normal;font-size:medium;line-height:normal;font-family:sans-serif;font-variant-ligatures:normal;font-variant-position:normal;font-variant-caps:normal;font-variant-numeric:normal;font-variant-alternates:normal;font-feature-settings:normal;text-indent:0;text-align:start;text-decoration:none;text-decoration-line:none;text-decoration-style:solid;text-decoration-color:#000000;letter-spacing:normal;word-spacing:normal;text-transform:none;writing-mode:lr-tb;direction:ltr;text-orientation:mixed;dominant-baseline:auto;baseline-shift:baseline;text-anchor:start;white-space:normal;shape-padding:0;clip-rule:nonzero;display:inline;overflow:visible;visibility:visible;opacity:1;isolation:auto;mix-blend-mode:normal;color-interpolation:sRGB;color-interpolation-filters:linearRGB;solid-color:#000000;solid-opacity:1;vector-effect:none;fill:#1b1918;fill-opacity:1;fill-rule:nonzero;stroke:none;stroke-width:0.616;stroke-linecap:butt;stroke-linejoin:miter;stroke-miterlimit:4;stroke-dasharray:none;stroke-dashoffset:0;stroke-opacity:1;color-rendering:auto;image-rendering:auto;shape-rendering:auto;text-rendering:auto;enable-background:accumulate"
     d="m 178.90183,48.11016 -0.28035,0.22257 c 0,0 0.95659,7.93057 3.30078,18.00196 2.34419,10.07138 6.06872,22.28762 11.65039,30.90625 5.55271,8.5739 9.81605,13.57942 12.69922,16.44726 1.44158,1.43392 2.53799,2.33357 3.2793,2.87696 0.7413,0.54338 1.14648,0.74023 1.14648,0.74023 l 0.26563,-0.55664 c 0,0 -0.33527,-0.15664 -1.04883,-0.67969 -0.71356,-0.52305 -1.78686,-1.40379 -3.20899,-2.81836 -2.84425,-2.82913 -7.08124,-7.79875 -12.61523,-16.34375 -5.50503,-8.50027 -9.23197,-20.67305 -11.56836,-30.71094 -2.33639,-10.03788 -3.43743,-18.13152 -3.43743,-18.13152 z"
     id="path910"
     inkscape:connector-curvature="0"
     sodipodi:nodetypes="ccssccccsssscc" />
  <path
     d="m 143.9489,103.5965 c 1.4366,-0.2047 6.1558,0.2056 6.1558,0.2056 0,0 0.5759,0.7984 -0.0605,2.5839 -0.6364,1.7855 -1.8265,3.0575 -2.2991,2.7709 -0.4727,-0.2866 -0.2866,-0.6774 -1.7232,-0.6774 -1.4366,0 -2.8723,-0.6364 -2.8723,-0.6364 l 0.6169,-1.4776 z"
     style="fill:#ffffff;fill-rule:evenodd"
     id="path912"
     inkscape:connector-curvature="0" />
  <g
     id="Layer1000"
     transform="translate(-156.7086,-72.5442)" />
</svg>
